<?xml version="1.0" encoding="utf-8"?>
<!-- Generator: Adobe Illustrator 22.0.0, SVG Export Plug-In . SVG Version: 6.00 Build 0)  -->
<svg version="1.1" id="Layer_1" xmlns="http://www.w3.org/2000/svg" xmlns:xlink="http://www.w3.org/1999/xlink" x="0px" y="0px"
	 viewBox="0 0 1366 768" style="enable-background:new 0 0 1366 768;" xml:space="preserve">
<style type="text/css">
	.st0{display:none;fill:#FFFFFF;}
	.st1{fill:#61D9FF;}
	.st2{opacity:0.66;}
	.st3{clip-path:url(#SVGID_2_);fill:#0098E1;stroke:#0098E1;stroke-width:1.22;stroke-linecap:round;stroke-linejoin:round;}
	.st4{fill:none;}
</style>
<rect x="-0.5" y="-0.5" class="st0" width="1024" height="768"/>
<g>
	<rect x="0.7" y="0" class="st1" width="1365.3" height="767.5"/>
	<g class="st2">
		<g>
			<defs>
				<rect id="SVGID_1_" y="0.4" width="1365.3" height="767.5"/>
			</defs>
			<clipPath id="SVGID_2_">
				<use xlink:href="#SVGID_1_"  style="overflow:visible;"/>
			</clipPath>
			<path class="st3" d="M1455.4-309.8c-52.6-0.3-119.3,25.3-143.7,46.8c-16.3,14.3-23.7,33.1-40.6,46.8
				c-23.1,18.7-62.8,14.1-62.4,51.5c11.9,12.5,12.3,30.5,21.9,44.5c24.4,35.4,67,75.2,106.2,100.6c31.3,20.3,78.4,35.6,115.5,51.5
				c18,7.7,33.6,23.4,50,32.8h9.3c45.9,26.2,83.5,59.1,115.5,96c18.9,21.8,49.8,43.6,50,77.2c-11.1,14.2,8.8,48.8,9.3,67.9
				c-1.1,24.2-2.1,48.4-3.1,72.6c-2.8,9.3-10.3,24.8-6.3,37.5c6.1,19.2,20.4,79.3,9.3,107.7c-59.8,152.7-250.9,206.7-502.8,206
				c-9.9,28.4-47.8,44.7-68.7,65.5c-48.3,48-108.3,92.9-121.8,166.2c10.1,4.8,12.5,7,31.2,7c19.3,10,48.2,4.4,75,9.4
				c109.9,20.2,276.8,14.9,371.6-9.4c23.5-6,100.8-21,118.7,0c6.1,6.5,4.1,15.5,9.3,23.4c11.5,17.5,38.8,40.3,59.4,51.5
				c86.7,47.2,153.8,31.4,171.8,138.1c-48.7,0.4-95.6-9.8-124.9-25.7c-15.6-8.5-22-23.8-43.8-28.1v4.7
				c-11.1,15.4,34.6,37.7,40.6,51.5h-18.7c-15.1-8.2-39.2-7.6-56.2-14c-13.6-5.1-60.3-34.9-65.6-44.5v-58.5
				c-4.7-5.1-5.7-15.7-6.3-23.4h-9.3c-5.2,15.8-20.1,15.1-46.8,14c-25.6-12.4-126.1-7-168.6-7c-66.4,0-130.5,2.1-187.4,9.4
				c-33.3,4.3-81,0-118.7,7c-37,6.9-70.6,22-109.3,23.4c-3.7-6.3-7.9-5-12.5-9.4c-13.7-12.8-28.1-47.9-34.4-65.5
				c-26-73.8,37-157,53.1-210.7h-9.3c-15.5,13-64.6,23.7-87.4,32.8c-43.9,17.4-94,41.4-131.1,65.5c-34.2,22.1-72.2,53.4-93.6,84.3
				c-8.5,12.2-9.1,31.1-18.7,42.1c-4.9,5.7-18.1,9.3-24.9,14c-16.5,11.5-32.8,29.1-46.8,42.1c-44.4,41.4-75.5,107-103.1,161.5
				c-10.1,20.1-3.1,54.4-12.5,79.6c-11.2,30-31.5,53.8-50,77.2c-4.5,5.8-22.1,23.6-18.7,25.7c10,8.6,26.3,6,40.6,11.7
				c22.1,8.8,45.6,31.8,50,53.8c-52.3,2.4-125.4,0-187.4,0l-3.1-7c-6.1-7.8-1.9-18.6-12.5-23.4c-5.1,5.4-4.5,5.5-15.6,7
				c-4.7-6.6-6.4-11.6-6.3-23.4c7.5-7.2,7.1-16.5,12.5-25.7c14.3-24.7,42.3-48.7,53.1-74.9c6.7-16.2-4.8-30-6.3-42.1
				c143.1-77.4,141.4-258.6,221.7-383.9c25.5-2.3,45-14.8,62.4-23.4c12.7-6.3,26.3-7,37.5-14c39.2-24.5,73.9-52.8,103.1-84.3
				c11.5-12.3,27.7-23.9,34.4-39.8c-38.3-18.4-71.8-59.1-109.3-72.6V685h-3.1v2.3c-39,19.5-65.5,68.1-121.8,72.6
				c-0.8-1-1.9-1.8-3.1-2.3c-2.3-26.6-9.1-48-9.3-79.6h-6.3v2.3c-13.3,8.7-18,23.9-28.1,35.1c-15.9,17.5-74.6,59.4-106.2,63.2
				c-0.5-31-2.8-60.3,6.3-86.6c4.5-13.4,13.5-26.7,15.6-42.1h-6.3c-33.1,33-137.1,71.4-212.4,72.6c0.1-36.5,28.3-75.4,53.1-96
				c12.5-10.3,31.9-14.8,37.5-30.4C125.3,597.4,66,583.5,0.7,570.4v-7c33.3-15.4,61-36.5,99.9-49.2c25.1-8.2,90.4-9.5,109.3-18.7
				c2.5-2.4,1.1-0.6,3.1-4.7c-45-3-139.9-60.2-149.9-88.9c71.2-13.7,183-2.3,237.3,14c17.9,5.4,61.5,28.2,78,23.4
				c21.7-5.3,42.8-18.3,65.6-23.4c29.7-6.7,72.6,3.1,96.8,7h153v7c-22.5,5-40.3,20.2-59.4,28.1c-29.9,12.3-63.5,22.9-93.6,32.8
				c-20.9,6.9-44.8,2.4-50,21.1c45.1,12.6,93.9,24,143.7,35.1c42.3,9.5,108.1,4.3,159.3,4.7v4.7c-31.2,10.2-109.5,81.2-115.5,110
				c12.5,5.9,23.6,7.4,46.8,7c18.1-8.4,49.9-4.6,71.8-9.4c38.2-8.3,86-32.4,121.8-35.1v4.7c-16.3,18.2-15.7,56-15.6,84.3
				c7.1,2.9,7.1,3.8,18.7,4.7c9.3-4.9,19.2-3.1,31.2-7c35.5-11.5,90.7-26.4,121.8-42.1c23.6-11.9,46.2-35.5,78-39.8
				c1.3,11.4,5.6,22.5,12.5,32.8c48.7-6.8,129-53.9,140.5-86.6h-6.3c-11.1,18.9-77.8,48.6-115.5,49.2v-2.3h-3.1
				c0.4-11.9,0.8-26.7-3.1-35.1c-23.1,9.1-41.5,24.5-62.4,35.1c-32.5,16.6-68.6,24.5-106.2,37.5c-20.9,7.2-37.9,17.3-68.7,18.7
				c-0.1-23.5,23.2-94.4,21.9-96v-2.3h-6.3c-8.4,10.8-28.4,12.8-43.8,18.7c-44.3,17.1-93,34.5-159.3,35.1
				c6.7-33.6,60.4-69.6,87.4-91.3c9.7-7.8,17.9-5.4,21.9-18.7c-64.3,1.2-143.7,4.9-199.8-4.7H634c-19.2-4.4-38.3-12.7-62.4-14v-4.7
				c55.2-6.2,139.3-53.7,181.2-74.9c16.7-8.4,43.6-14.5,46.8-32.8c-96,1.2-191.3,0.7-265.5-14c-24.4-4.9-53.4-2.2-71.8-11.7
				c-2.4-2.5-1.9-2.2-3.1-7c26.5-8.9,40-34.3,62.4-46.8c33.5-18.6,73.6-38.1,112.5-51.5c19.2-6.7,89-14.9,96.8-25.7H728v-2.3
				c-20.1-0.8-39.4-6.3-56.2-9.4c-57.4-10.4-126.2,7.6-171.8,9.4c6.7-50.8,104.9-94.2,159.3-112.4c21.6-7.2,86.6-11.2,96.8-23.4
				l-6.3-2.3c-29.1-15.8-91.2-20.8-137.4-21.1v-4.7c25.3-8.2,46.8-25.9,75-32.8c44.4-10.8,130.6-7.3,174.9,0h53.1
				c31.5,5.8,70,6.2,103.1,14c120.5,28.4,223,60.4,311.9,112c17.6,10.3,29.9,26.7,46.8,37.5c22.8,14.5,46.2,29.9,65.6,46.8
				c18.7,16.3,30.3,46.2,56.2,56.2v-9.4c12-14.3-4.1-37.6-9.3-46.8c-24-42.4-51.4-59.6-90.6-88.9c-127.8-95.7-294-177-352.8-323
				c-23.2-57.6,4.9-125.4,21.9-166.2v-25.7c3.3-7.5,16.7-23.5,24.9-28.1c13.7-7.6,82.4-23.5,115.5-14c20.8,5.9,36,19.7,53.1,28.1
				c39.9,19.7,113.3,27.5,178,28.1c3.2,5.4,5.3,5.1,9.3,9.4C1454.3-323.6,1455-318.8,1455.4-309.8z"/>
		</g>
	</g>
</g>
<polygon class="st0" points="1074,311 1074,311 1074,311 "/>
<rect x="152" y="332" class="st4" width="749" height="240.5"/>
</svg>
