<svg xmlns="http://www.w3.org/2000/svg" width="627" height="842" viewBox="0 0 627 842">
  <metadata><?xpacket begin="﻿" id="W5M0MpCehiHzreSzNTczkc9d"?>
<x:xmpmeta xmlns:x="adobe:ns:meta/" x:xmptk="Adobe XMP Core 5.6-c142 79.160924, 2017/07/13-01:06:39        ">
   <rdf:RDF xmlns:rdf="http://www.w3.org/1999/02/22-rdf-syntax-ns#">
      <rdf:Description rdf:about=""/>
   </rdf:RDF>
</x:xmpmeta>
                                                                                                    
                                                                                                    
                                                                                                    
                                                                                                    
                                                                                                    
                                                                                                    
                                                                                                    
                                                                                                    
                                                                                                    
                                                                                                    
                                                                                                    
                                                                                                    
                                                                                                    
                                                                                                    
                                                                                                    
                                                                                                    
                                                                                                    
                                                                                                    
                                                                                                    
                                                                                                    
                           
<?xpacket end="w"?></metadata>
<defs>
    <style>
      .cls-1 {
        fill: #0098e1;
        stroke: #0098e1;
        stroke-linecap: round;
        stroke-linejoin: round;
        stroke-width: 1.22px;
        fill-rule: evenodd;
      }
    </style>
  </defs>
  <path class="cls-1" d="M483,60c-16.843-.142-38.179,10.794-46,20-5.2,6.126-7.6,14.15-13,20-7.38,7.994-20.125,6.041-20,22,3.8,5.325,3.921,13.045,7,19,7.828,15.139,21.442,32.139,34,43,10.036,8.68,25.1,15.2,37,22,5.778,3.3,10.775,10,16,14h3c14.68,11.21,26.741,25.231,37,41,6.055,9.306,15.913,18.611,16,33-3.552,6.055,2.825,20.867,3,29q-0.5,15.5-1,31c-0.876,3.953-3.282,10.6-2,16,1.95,8.223,6.549,33.9,3,46-19.138,65.236-80.332,88.309-161,88-3.155,12.134-15.294,19.093-22,28-15.449,20.52-34.7,39.7-39,71,3.241,2.046,4.032,2.988,10,3,6.207,4.278,15.415,1.9,24,4,35.183,8.61,88.637,6.369,119-4,7.511-2.565,32.306-8.968,38,0,1.974,2.786,1.333,6.62,3,10,3.68,7.465,12.43,17.231,19,22,27.758,20.15,49.262,13.394,55,59-15.606.179-30.615-4.179-40-11-4.985-3.624-7.052-10.166-14-12v2c-3.539,6.6,11.063,16.112,13,22h-6c-4.841-3.5-12.554-3.258-18-6-4.346-2.188-19.316-14.926-21-19V648c-1.483-2.184-1.83-6.693-2-10h-3c-1.645,6.769-6.464,6.471-15,6-8.219-5.315-40.35-3-54-3-21.29,0-41.784.9-60,4-10.7,1.822-25.933.007-38,3-11.82,2.932-22.6,9.4-35,10-1.215-2.7-2.5-2.149-4-4-4.42-5.462-9-20.449-11-28-8.328-31.52,11.824-67.084,17-90h-3c-4.949,5.551-20.676,10.129-28,14-14.055,7.429-30.1,17.7-42,28-10.93,9.463-23.1,22.807-30,36-2.717,5.2-2.894,13.287-6,18-1.6,2.425-5.824,3.965-8,6-5.276,4.933-10.507,12.416-15,18-14.243,17.705-24.19,45.712-33,69-3.247,8.582-.994,23.255-4,34-3.583,12.8-10.069,22.985-16,33-1.462,2.469-7.077,10.063-6,11,3.183,3.686,8.4,2.568,13,5,7.087,3.749,14.6,13.585,16,23-16.761,1.046-40.138.018-60,0l-1-3c-1.973-3.313-.611-7.946-4-10-1.615,2.316-1.461,2.352-5,3-1.513-2.806-2.043-4.964-2-10,2.384-3.094,2.284-7.038,4-11,4.564-10.541,13.558-20.811,17-32,2.13-6.925-1.557-12.8-2-18,45.841-33.051,45.272-110.489,71-164,8.177-.985,14.413-6.31,20-10,4.049-2.675,8.434-2.977,12-6a182.729,182.729,0,0,0,33-36c3.653-5.248,8.871-10.216,11-17-12.253-7.84-22.983-25.231-35-31v-1h-1v1c-12.473,8.347-20.964,29.1-39,31a2.834,2.834,0,0,0-1-1c-0.717-11.373-2.91-20.488-3-34h-2v1c-4.263,3.7-5.759,10.221-9,15-5.069,7.475-23.891,25.367-34,27-0.191-13.232-.879-25.745,2-37,1.47-5.746,4.317-11.388,5-18h-2c-10.576,14.12-43.912,30.486-68,31,0.061-15.615,9.037-32.227,17-41,4-4.409,10.2-6.317,12-13-29.108.543-48.071-5.39-69-11v-3c10.671-6.6,19.532-15.581,32-21,8.035-3.492,28.951-4.075,35-8,0.8-1.021.355-.274,1-2-14.381-1.269-44.789-25.721-48-38,22.8-5.873,58.593-.973,76,6,5.737,2.3,19.7,12.043,25,10,6.942-2.265,13.725-7.82,21-10,9.532-2.856,23.243,1.331,31,3h49v3c-7.226,2.132-12.889,8.639-19,12-9.584,5.272-20.351,9.776-30,14-6.7,2.932-14.354,1.017-16,9,14.453,5.4,30.07,10.243,46,15,13.55,4.046,34.621,1.837,51,2v2c-9.989,4.359-35.079,34.675-37,47,4,2.5,7.566,3.151,15,3,5.8-3.609,15.992-1.955,23-4,12.2-3.559,27.543-13.832,39-15v2c-5.221,7.779-5.045,23.912-5,36,2.281,1.225,2.251,1.638,6,2,3-2.086,6.149-1.333,10-3,11.38-4.925,29.053-11.3,39-18,7.568-5.1,14.8-15.162,25-17a38.9,38.9,0,0,0,4,14c15.584-2.884,41.323-23.036,45-37h-2c-3.545,8.083-24.913,20.756-37,21v-1h-1c0.118-5.094.244-11.42-1-15-7.4,3.9-13.3,10.456-20,15-10.435,7.076-21.946,10.449-34,16-6.707,3.089-12.124,7.4-22,8-0.06-10.046,7.415-40.318,7-41v-1h-2c-2.679,4.625-9.086,5.466-14,8-14.187,7.315-29.778,14.742-51,15,2.153-14.374,19.352-29.735,28-39,3.1-3.319,5.733-2.3,7-8-20.6.507-45.989,2.089-64-2h-9c-6.169-1.866-12.277-5.446-20-6v-2c17.7-2.639,44.6-22.927,58-32,5.321-3.6,13.981-6.215,15-14-30.747.52-61.271,0.286-85-6-7.829-2.074-17.1-.919-23-5-0.752-1.073-.6-0.946-1-3,8.492-3.823,12.8-14.674,20-20,10.732-7.942,23.594-16.286,36-22,6.17-2.842,28.5-6.387,31-11h-1v-1c-6.468-.363-12.593-2.7-18-4-18.376-4.43-40.414,3.256-55,4,2.132-21.715,33.563-40.24,51-48,6.905-3.073,27.708-4.78,31-10l-2-1c-9.3-6.766-29.227-8.881-44-9v-2c8.1-3.52,15-11.067,24-14,14.211-4.63,41.8-3.1,56,0h17c10.063,2.464,22.446,2.651,33,6,38.682,12.274,71.554,25.961,100,48,5.653,4.38,9.579,11.4,15,16,7.286,6.185,14.8,12.778,21,20,5.96,6.947,9.686,19.742,18,24v-4c3.859-6.1-1.329-16.075-3-20-7.7-18.1-16.437-25.447-29-38-40.933-40.9-94.156-75.62-113-138-7.428-24.588,1.576-53.591,7-71V42c1.057-3.21,5.351-10.05,8-12,4.388-3.231,26.419-10.023,37-6,6.655,2.53,11.537,8.4,17,12,12.788,8.419,36.246,11.745,57,12,1.012,2.31,1.712,2.163,3,4C482.664,54.069,482.91,56.156,483,60Z"/>
</svg>
